<?xml version="1.0" encoding="UTF-8"?>
<!DOCTYPE svg PUBLIC "-//W3C//DTD SVG 1.1//EN" "http://www.w3.org/Graphics/SVG/1.1/DTD/svg11.dtd">
<!-- Creator: CorelDRAW 2018 (64-Bit Evaluation Version) -->
<svg xmlns="http://www.w3.org/2000/svg" xml:space="preserve" width="0.579945in" height="0.828488in" version="1.1" style="shape-rendering:geometricPrecision; text-rendering:geometricPrecision; image-rendering:optimizeQuality; fill-rule:evenodd; clip-rule:evenodd"
viewBox="0 0 48.41 69.16"
 xmlns:xlink="http://www.w3.org/1999/xlink">
 <defs>
  <style type="text/css">
   <![CDATA[
    .fil1 {fill:#FEFEFE}
    .fil0 {fill:#2B3D7A}
   ]]>
  </style>
 </defs>
 <g id="Layer_x0020_1">
  <metadata id="CorelCorpID_0Corel-Layer"/>
  <g id="_1714113346160">
   <path class="fil0" d="M23.37 0l1.68 0c1.51,0.06 3.03,0.28 4.57,0.66 1.34,0.33 2.51,0.78 3.72,1.36 4.17,2 6.88,4.75 9.21,8.58 3.98,6.54 3.54,15 -0.32,21.46l-6.47 10.74c-1.93,3.21 -3.85,6.35 -5.76,9.55 -0.96,1.6 -1.93,3.19 -2.89,4.8l-2.14 3.57c-0.16,0.27 -0.56,1.02 -0.75,1.16 -0.27,-0.2 -0.92,-1.4 -1.13,-1.76 -0.18,-0.31 -0.38,-0.6 -0.56,-0.92 -0.4,-0.67 -2.56,-4.03 -2.68,-4.45 -0.17,0.08 -1.54,0.18 -1.89,0.22 -2.35,0.29 -4.73,0.77 -6.96,1.51 -1.04,0.35 -2.03,0.76 -2.98,1.25 -0.53,0.27 -0.79,0.53 -1.22,0.82 0.53,0.8 2.39,1.51 3.31,1.85 6.99,2.6 16.89,2.6 24.23,1.14 1.51,-0.3 6.39,-1.59 7.32,-2.98 -1.09,-0.73 -1.71,-1.16 -3.03,-1.63 -1.53,-0.56 -3.15,-1.02 -4.74,-1.4 -0.37,-0.09 -0.83,-0.21 -1.27,-0.21 0.06,-0.25 0.3,-0.57 0.45,-0.82l3.29 -5.25 3.15 0.87c0.39,0.11 0.64,0.21 1,0.34 1.23,0.41 2.57,1.09 3.64,1.72 2.66,1.59 4.17,3.84 4.27,6.17l0 0.49c-0.07,1.79 -0.98,3.61 -2.84,5.2 -1.87,1.6 -4.68,2.7 -7.02,3.35 -0.51,0.14 -1.06,0.28 -1.62,0.42 -2.3,0.58 -4.78,0.98 -7.21,1.12 -1.27,0.07 -2.49,0.21 -3.88,0.21l-3.25 0c-1.4,0 -2.62,-0.15 -3.95,-0.21 -3.06,-0.13 -7.42,-1.08 -10.31,-2.04 -2.67,-0.89 -5.33,-2.2 -7,-4.43 -0.15,-0.21 -0.28,-0.38 -0.4,-0.59 -0.49,-0.82 -0.92,-1.87 -0.92,-3.17 0,-3.76 3.1,-5.99 6.02,-7.46 2.31,-1.15 4.88,-1.87 7.49,-2.39 0.96,-0.19 1.88,-0.38 2.86,-0.38 -0.03,-0.37 -0.73,-1.29 -0.93,-1.61l-3.87 -6.22c-1.56,-2.6 -3.25,-5.13 -4.84,-7.73 -0.88,-1.43 -1.07,-1.75 -1.79,-3.21 -1.33,-2.69 -1.83,-6.03 -1.83,-9.1 0,-9.2 6.8,-17.73 15.69,-19.94 1.54,-0.38 3.06,-0.6 4.57,-0.66z"/>
   <path class="fil1" d="M15.24 18.7c0,-2 0.85,-4.33 2.1,-5.73 5.99,-6.72 15.82,-2.06 15.82,5.73 0,2.4 -0.88,4.39 -2.38,6.01 -5.72,6.21 -15.54,1.81 -15.54,-6.01z"/>
  </g>
 </g>
</svg>
